<svg id="Layer_1" data-name="Layer 1" xmlns="http://www.w3.org/2000/svg" viewBox="0 0 1116 700"><defs><style>.cls-1{fill:#1a7fd5;}.cls-2{fill:#1d90e0;}.cls-3{fill:#70c931;}.cls-4{fill:#46b81b;}.cls-5{fill:#33a11a;}.cls-6{fill:#1f9fea;}</style></defs><path class="cls-1" d="M602.26,378.4h0a170.34,170.34,0,0,1-156.51-274l0,0c7.83-7.47,41.65-37.73,83.79-46.79A143,143,0,0,0,431.68,167a65.51,65.51,0,0,0-2.56,18.21c0,1.09,0,2.19.09,3.31v.07c-.07,1.45-.09,2.91-.09,4.37v.58c0,.87,0,1.72,0,2.59A142.74,142.74,0,0,0,691.75,271.5,126.82,126.82,0,0,0,707.93,233c3.05-12.59,5-25.06,4.87-38l.44-.27s12.2,40-13.73,87.72c.55-.74,18.63-24.89,25.93-47.69C725.44,234.83,727.75,333,602.26,378.4Z"/><path class="cls-2" d="M665.54,359.47c-1.81,1.77-77.19,74.52-199.64,32.23l-1.65-.8c-29.14-14.23-54.8-35.22-73.48-62.58a187.26,187.26,0,0,1-32.41-107.18c1.08-101.93,85-184.75,186.9-184.61a185.8,185.8,0,0,1,116,40.65c-3.4-2.11-66.75-40.91-126.06-28.84-61,12.4-91.19,57.73-91.19,57.73s.59-.6,1.71-1.65a170.38,170.38,0,0,0,156.51,274S635.84,378,665.54,359.47Z"/><path class="cls-3" d="M724.46,222.33s-4.74,26.72-25,60.19c25.93-47.71,13.73-87.72,13.73-87.72l-.44.27c0-1.23-.06-2.47-.11-3.71-1.12-24.49-9.09-48.34-20.44-69.93-3.5-6.66-7.37-15.82-12.77-21.22-4.53-6.64-7.76-10.55-8.09-11C734.41,141,725.15,217.14,724.46,222.33Z"/><path class="cls-4" d="M713.79,315.14s-45,51.07-111.57,63.27C727.75,333,725.44,234.83,725.44,234.83c-7.3,22.8-25.38,46.95-25.93,47.69,20.21-33.47,25-60.19,25-60.19,11.93-53.1-15.64-113.67-16.35-115.21C783.58,208.09,716.52,311,713.79,315.14Z"/><path class="cls-5" d="M747.88,262.71c-4.49,22.53-11.57,37.82-21.36,55.81A186.06,186.06,0,0,1,695,361.05c-22.73,22.73-51.64,38.33-82.82,45.86A222.41,222.41,0,0,1,465.9,391.7C588.35,434,663.73,361.24,665.54,359.47c-29.7,18.48-63.32,18.94-63.32,18.94,66.54-12.2,111.57-63.27,111.57-63.27C734.87,292.82,747.88,262.71,747.88,262.71Z"/><path class="cls-6" d="M653.88,231.93c-17.87,37.42-66.1,68.4-106.48,45.44a56.39,56.39,0,0,1-25.89-32.17,50.57,50.57,0,0,1,8.56-46.15,34.6,34.6,0,0,1,4.18-4.44c38.32-26.8,51-89.11,13.69-124.57,1.38-.05,2.78-.07,4.19-.07h.26c1.07,0,2.12,0,3.16,0l1.85.07c.43,0,.85,0,1.28.06,21.43,1.77,42.67,8.29,60.77,20.06,22.1,14.39,37.8,35.5,42.91,61.41C667.66,178.2,665.65,207.29,653.88,231.93Z"/><path class="cls-2" d="M534.25,194.61a42.58,42.58,0,0,0,9.07-11.53C558,163.32,559.57,95.7,482.73,91.4a122.48,122.48,0,0,1,60.61-21.11l1.76-.11,1.42-.07,1.42-.07C585.26,105.5,572.57,167.81,534.25,194.61Z"/><path class="cls-1" d="M543.32,183.08c9.61-17.81,5.56-40.86-12.45-52.72a65.72,65.72,0,0,0-98.5,34.36A123.16,123.16,0,0,1,482.73,91.4C559.57,95.7,558,163.32,543.32,183.08Z"/><path class="cls-5" d="M278.39,580.66a24.27,24.27,0,1,1-12.08-3.22A23.7,23.7,0,0,1,278.39,580.66Zm-20.57,12.12a12.75,12.75,0,0,0,0,17.44,11.54,11.54,0,0,0,8.58,3.5,11.24,11.24,0,0,0,8.49-3.5,13,13,0,0,0,0-17.44,11.27,11.27,0,0,0-8.49-3.49A11.57,11.57,0,0,0,257.82,592.78Z"/><path class="cls-5" d="M305.85,639.5A23.46,23.46,0,0,1,297.08,629h14.74a12.22,12.22,0,0,0,3.49,2,11.44,11.44,0,0,0,3.78.6,13.82,13.82,0,0,0,8.25-2.42,7.7,7.7,0,0,0,3.41-6.62v-.09a23.2,23.2,0,0,1-11.66,3.07,24.1,24.1,0,1,1,24.06-24.06v17.91a24.06,24.06,0,0,1-37.3,20.09Zm21.82-29.28a13,13,0,0,0,0-17.44,11.27,11.27,0,0,0-8.49-3.49,11.53,11.53,0,0,0-8.57,3.49,12.72,12.72,0,0,0,0,17.44,11.5,11.5,0,0,0,8.57,3.5A11.24,11.24,0,0,0,327.67,610.22Z"/><path class="cls-5" d="M377.05,589.61a23.88,23.88,0,0,1,8.58-8.85,22.62,22.62,0,0,1,12-3.32,25.27,25.27,0,0,1,11.47,2.76,23.76,23.76,0,0,1,9.09,8A22.27,22.27,0,0,1,422,600.48a29.73,29.73,0,0,1-.37,5.78H387a9.12,9.12,0,0,0,3.68,5.46,11.8,11.8,0,0,0,6.95,2,12.48,12.48,0,0,0,4.71-.75,13.23,13.23,0,0,0,3.31-2l14.45.09a24.4,24.4,0,0,1-8.85,10.44,23.2,23.2,0,0,1-13.25,4,23.63,23.63,0,0,1-12.12-3.21,24,24,0,0,1-8.72-8.72,23.47,23.47,0,0,1-3.22-12A24,24,0,0,1,377.05,589.61ZM409,596.56a11.87,11.87,0,0,0-4.43-5.27,11.73,11.73,0,0,0-6.58-2,11.36,11.36,0,0,0-6.71,2,12.42,12.42,0,0,0-4.29,5.31Z"/><path class="cls-5" d="M468.11,624.82H456V600.29q0-5.68-2-8.34c-1.34-1.78-3.47-2.66-6.39-2.66s-5,.88-6.38,2.66-2,4.55-2,8.34v24.53H427.08V600.29q0-11.37,5.59-17.11t14.92-5.74q9.33,0,14.92,5.74t5.6,17.11Z"/><path class="cls-5" d="M476.36,589.61a23.88,23.88,0,0,1,8.58-8.85,22.64,22.64,0,0,1,12-3.32,25.24,25.24,0,0,1,11.47,2.76,23.86,23.86,0,0,1,9.1,8,22.26,22.26,0,0,1,3.77,12.31,29,29,0,0,1-.37,5.78h-34.6a9.09,9.09,0,0,0,3.69,5.46,11.77,11.77,0,0,0,6.94,2,12.48,12.48,0,0,0,4.71-.75,12.89,12.89,0,0,0,3.31-2l14.46.09a24.42,24.42,0,0,1-8.86,10.44,23.17,23.17,0,0,1-13.24,4,23.64,23.64,0,0,1-12.13-3.21,23.88,23.88,0,0,1-8.71-8.72,23.37,23.37,0,0,1-3.22-12A24.08,24.08,0,0,1,476.36,589.61Zm31.94,6.95a12.1,12.1,0,0,0-11-7.27,11.41,11.41,0,0,0-6.72,2,12.56,12.56,0,0,0-4.29,5.31Z"/><path class="cls-5" d="M526.39,600.29q0-11.09,5.5-16.69T546.35,578h.56v11.84h-.47a7.12,7.12,0,0,0-6,2.51c-1.3,1.68-2,4.33-2,7.93v24.53H526.39Z"/><path class="cls-5" d="M561,639.5A23.46,23.46,0,0,1,552.22,629H567a12.22,12.22,0,0,0,3.49,2,11.44,11.44,0,0,0,3.78.6,13.82,13.82,0,0,0,8.25-2.42,7.7,7.7,0,0,0,3.41-6.62v-.09a23.2,23.2,0,0,1-11.66,3.07,24.1,24.1,0,1,1,24.06-24.06v17.91A24.06,24.06,0,0,1,561,639.5Zm21.82-29.28a13,13,0,0,0,0-17.44,11.27,11.27,0,0,0-8.49-3.49,11.53,11.53,0,0,0-8.57,3.49,12.72,12.72,0,0,0,0,17.44,11.5,11.5,0,0,0,8.57,3.5A11.24,11.24,0,0,0,582.81,610.22Z"/><path class="cls-5" d="M606,571.15a7,7,0,0,1-2.1-5.17,7.23,7.23,0,0,1,14.45,0,7,7,0,0,1-2.1,5.17,6.91,6.91,0,0,1-5.08,2.1A7,7,0,0,1,606,571.15Zm-.89,7h12.12v46.63H605.1Z"/><path class="cls-5" d="M624.87,559.54h12.21V581a19.68,19.68,0,0,1,11.75-3.55,23.44,23.44,0,0,1,12,3.22,24.26,24.26,0,0,1,8.77,8.77,24,24,0,0,1,0,24.15,24.26,24.26,0,0,1-8.77,8.77,24.15,24.15,0,0,1-24.06,0,23.87,23.87,0,0,1-8.71-8.77,23.6,23.6,0,0,1-3.22-12.08Zm15.48,33.24a12.75,12.75,0,0,0,0,17.44,11.54,11.54,0,0,0,8.58,3.5,11.21,11.21,0,0,0,8.48-3.5,13,13,0,0,0,0-17.44,11.24,11.24,0,0,0-8.48-3.49A11.57,11.57,0,0,0,640.35,592.78Z"/><path class="cls-5" d="M712.76,580.66a24.25,24.25,0,1,1-12.08-3.22A23.8,23.8,0,0,1,712.76,580.66ZM692.2,592.78a12.75,12.75,0,0,0,0,17.44,11.54,11.54,0,0,0,8.58,3.5,11.24,11.24,0,0,0,8.48-3.5,13,13,0,0,0,0-17.44,11.27,11.27,0,0,0-8.48-3.49A11.57,11.57,0,0,0,692.2,592.78Z"/><path class="cls-5" d="M729.87,600.29q0-11.09,5.5-16.69T749.83,578h.56v11.84h-.47a7.12,7.12,0,0,0-6,2.51c-1.3,1.68-2,4.33-2,7.93v24.53H729.87Z"/><path class="cls-5" d="M758.08,571.15A7,7,0,0,1,756,566a6.94,6.94,0,0,1,2.1-5.09,7,7,0,0,1,5.18-2.1,7.17,7.17,0,0,1,7.18,7.19,7,7,0,0,1-2.1,5.17,6.93,6.93,0,0,1-5.08,2.1A7,7,0,0,1,758.08,571.15Zm-.89,7h12.13v46.63H757.19Z"/><path class="cls-5" d="M818,624.82H805.87V600.29q0-5.68-2-8.34c-1.34-1.78-3.47-2.66-6.39-2.66s-5.05.88-6.39,2.66-2,4.55-2,8.34v24.53H777V600.29q0-11.37,5.6-17.11t14.92-5.74q9.32,0,14.92,5.74t5.6,17.11Z"/><path class="cls-5" d="M833.94,639.5A23.37,23.37,0,0,1,825.18,629h14.73a12.26,12.26,0,0,0,3.5,2,11.42,11.42,0,0,0,3.77.6,13.83,13.83,0,0,0,8.26-2.42,7.72,7.72,0,0,0,3.4-6.62v-.09a23.2,23.2,0,0,1-11.66,3.07,24.11,24.11,0,1,1,24.06-24.06v17.91a24,24,0,0,1-24.06,24.06A23.36,23.36,0,0,1,833.94,639.5Zm21.82-29.28a13,13,0,0,0,0-17.44,11.27,11.27,0,0,0-8.48-3.49,11.57,11.57,0,0,0-8.58,3.49,12.75,12.75,0,0,0,0,17.44,11.54,11.54,0,0,0,8.58,3.5A11.24,11.24,0,0,0,855.76,610.22Z"/><path class="cls-1" d="M166.77,496a110.49,110.49,0,0,0-14.22-3.23,55.72,55.72,0,0,1-10.49-2.44q-3.3-1.31-3.3-3.88,0-2.88,3.09-4.74a14.57,14.57,0,0,1,7.68-1.87,16.36,16.36,0,0,1,8.26,2q3.53,2,3.52,5h17.82q0-11.07-8.19-17.31t-21.12-6.25a38.93,38.93,0,0,0-15.08,2.8A26.15,26.15,0,0,0,124,473.9a17.4,17.4,0,0,0-4,11.13q0,8.06,4.1,12.43a22.41,22.41,0,0,0,9.69,6.17A104.28,104.28,0,0,0,148,506.87,65.78,65.78,0,0,1,159,509.45c2.3.87,3.45,2.35,3.45,4.46a5.71,5.71,0,0,1-3.09,5c-2.06,1.3-5,1.94-8.69,1.94a19.52,19.52,0,0,1-9.69-2.15q-3.81-2.16-3.81-5.61H119.36a21.21,21.21,0,0,0,4.24,13.29,26,26,0,0,0,11.28,8.34,41.35,41.35,0,0,0,15.37,2.8q13.94,0,22.49-5.82t8.4-17.31q0-7.75-4.31-12.14A24,24,0,0,0,166.77,496Z"/><path class="cls-1" d="M212.75,435.9H194.07v28.59H183.44v18.24h10.63v19.68q0,17.38,8.55,25.86t23.06,8.48V518.51q-6.9,0-9.92-3.74t-3-12.36V482.73h12.93V464.49H212.75Z"/><rect class="cls-1" x="234.29" y="435.75" width="18.68" height="100.57"/><path class="cls-1" d="M316.47,468.29a37.18,37.18,0,0,0-37.07,0,37.29,37.29,0,0,0-13.5,13.51,36.92,36.92,0,0,0,0,37.21,37.18,37.18,0,0,0,13.5,13.5,36,36,0,0,0,18.53,5,25.49,25.49,0,0,0,11.35-2.59c3.55-1.72,5.84-3.78,6.9-6.18v7.62h18.68V500.4a37.12,37.12,0,0,0-18.39-32.11Zm-5.32,45.55a17.36,17.36,0,0,1-13.07,5.38,17.82,17.82,0,0,1-13.22-5.38,19.65,19.65,0,0,1,0-26.87,17.82,17.82,0,0,1,13.22-5.39A17.37,17.37,0,0,1,311.15,487a20,20,0,0,1,0,26.87Z"/><path class="cls-1" d="M375.08,463.34q-14.37,0-23,8.83t-8.62,26.37v37.78h18.67V498.54q0-8.78,3.09-12.86t9.84-4.1q6.75,0,9.84,4.1T388,498.54v37.78h18.68V498.54q0-17.54-8.62-26.37T375.08,463.34Z"/><path class="cls-1" d="M469.76,468.8a30.25,30.25,0,0,0-18.1-5.46,36.1,36.1,0,0,0-18.54,5,37.29,37.29,0,0,0-13.5,13.51,36.92,36.92,0,0,0,0,37.21,37.18,37.18,0,0,0,13.5,13.5,37.11,37.11,0,0,0,37.07,0,37.08,37.08,0,0,0,18.39-32.11V435.75H469.76Zm-5,45a17.83,17.83,0,0,1-13.22,5.38,17.34,17.34,0,0,1-13.07-5.38,20,20,0,0,1,0-26.87,17.35,17.35,0,0,1,13.07-5.39A17.84,17.84,0,0,1,464.73,487a19.62,19.62,0,0,1,0,26.87Z"/><path class="cls-1" d="M543.17,496A110.49,110.49,0,0,0,529,492.79a55.72,55.72,0,0,1-10.49-2.44q-3.3-1.31-3.3-3.88c0-1.92,1-3.5,3.08-4.74a14.58,14.58,0,0,1,7.69-1.87,16.38,16.38,0,0,1,8.26,2q3.52,2,3.52,5h17.82q0-11.07-8.19-17.31t-21.12-6.25a39,39,0,0,0-15.09,2.8,26.12,26.12,0,0,0-10.7,7.76A17.35,17.35,0,0,0,496.48,485q0,8.06,4.09,12.43a22.38,22.38,0,0,0,9.7,6.17,104.28,104.28,0,0,0,14.08,3.24,66,66,0,0,1,11.06,2.58c2.3.87,3.45,2.35,3.45,4.46a5.71,5.71,0,0,1-3.09,5c-2.06,1.3-4.95,1.94-8.69,1.94a19.59,19.59,0,0,1-9.7-2.15q-3.81-2.16-3.81-5.61H495.76A21.15,21.15,0,0,0,500,526.33a25.89,25.89,0,0,0,11.28,8.34,41.32,41.32,0,0,0,15.37,2.8q13.94,0,22.48-5.82t8.41-17.31q0-7.75-4.31-12.14A24,24,0,0,0,543.17,496Z"/><polygon class="cls-1" points="631.09 464.49 607.24 464.49 583.39 488.19 583.39 435.75 564.72 435.75 564.72 536.32 583.39 536.32 583.39 511.61 591.15 503.85 614.86 536.32 635.69 536.32 603.8 492.07 631.09 464.49"/><path class="cls-1" d="M698.83,479.86a36.84,36.84,0,0,0-14-12.29,39.09,39.09,0,0,0-17.67-4.23,34.91,34.91,0,0,0-18.46,5.1,37.42,37.42,0,0,0-18,32.11,36,36,0,0,0,5,18.53,36.8,36.8,0,0,0,13.43,13.43,36.26,36.26,0,0,0,18.68,5,35.78,35.78,0,0,0,20.4-6.18,37.73,37.73,0,0,0,13.65-16.09l-22.27-.14a20.4,20.4,0,0,1-5.1,3,19.3,19.3,0,0,1-7.26,1.15,18.1,18.1,0,0,1-10.7-3.09,14,14,0,0,1-5.68-8.4h53.3a45.78,45.78,0,0,0,.58-8.91A34.24,34.24,0,0,0,698.83,479.86Zm-48.06,12.93a19.39,19.39,0,0,1,6.61-8.19,17.61,17.61,0,0,1,10.35-3,18.65,18.65,0,0,1,16.95,11.21Z"/><path class="cls-1" d="M793.14,468.29a36.1,36.1,0,0,0-18.53-5,30.25,30.25,0,0,0-18.1,5.46V435.75H737.69V500.4a37,37,0,0,0,18.39,32.11,37.09,37.09,0,0,0,37.06,0A37.29,37.29,0,0,0,806.65,519a36.92,36.92,0,0,0,0-37.21A37.39,37.39,0,0,0,793.14,468.29Zm-5.31,45.55a17.36,17.36,0,0,1-13.07,5.38,17.82,17.82,0,0,1-13.22-5.38,19.62,19.62,0,0,1,0-26.87,17.82,17.82,0,0,1,13.22-5.39A17.37,17.37,0,0,1,787.83,487a20,20,0,0,1,0,26.87Z"/><path class="cls-1" d="M851.18,482.44V464.2h-.86q-13.79,0-22.27,8.62t-8.47,25.72v37.78h18.67V498.54q0-8.34,3-12.22t9.2-3.88Z"/><path class="cls-1" d="M969.85,463.34q-14.37,0-23,8.83t-8.62,26.37v37.78h18.67V498.54q0-8.78,3.09-12.86t9.84-4.1q6.75,0,9.84,4.1t3.09,12.86v37.78h18.68V498.54q0-17.54-8.62-26.37T969.85,463.34Z"/><path class="cls-1" d="M1066.11,472.17q-8.62-8.84-23-8.83t-23,8.83q-8.61,8.83-8.61,26.37v37.78h18.67V498.54q0-8.78,3.09-12.86t9.84-4.1q6.75,0,9.84,4.1t3.09,12.86v37.78h18.68V498.54Q1074.73,481,1066.11,472.17Z"/><path class="cls-1" d="M110.68,460,98.27,470.84a39.18,39.18,0,0,0-3.83-2.55A37.11,37.11,0,0,0,43.72,481.8a37.41,37.41,0,0,0-.19,36.86l-12,10.5,7.91,9.06,11.64-10.17a37.92,37.92,0,0,0,6.17,4.46A37.11,37.11,0,0,0,107.94,519a37.37,37.37,0,0,0,0-37.21c-.44-.76-.91-1.5-1.39-2.22l12-10.51ZM57.44,500.4A18.33,18.33,0,0,1,62.76,487,17.82,17.82,0,0,1,76,481.58a18.39,18.39,0,0,1,8,1.73L58.15,505.89A20.64,20.64,0,0,1,57.44,500.4Zm36.78,0a18.64,18.64,0,0,1-5.17,13.44A17.36,17.36,0,0,1,76,519.22a18,18,0,0,1-10.91-3.41l27.37-23.9A20,20,0,0,1,94.22,500.4Z"/><path class="cls-1" d="M928.91,460l-12.77,11.15a38.67,38.67,0,0,0-4.26-2.87A37.14,37.14,0,0,0,861.17,519l.07.11-11.5,10,7.91,9.06,11.25-9.82a37.56,37.56,0,0,0,5.77,4.11,37.13,37.13,0,0,0,50.72-50.71c-.35-.61-.73-1.2-1.11-1.78l12.54-10.95Zm-54,40.39A18.33,18.33,0,0,1,880.21,487a17.8,17.8,0,0,1,13.21-5.39,18.27,18.27,0,0,1,8.53,2l-26.19,22.88A20.53,20.53,0,0,1,874.89,500.4Zm36.78,0a18.68,18.68,0,0,1-5.17,13.44,17.37,17.37,0,0,1-13.08,5.38,18.05,18.05,0,0,1-10.48-3.09l27.16-23.72A20.05,20.05,0,0,1,911.67,500.4Z"/></svg>